<!DOCTYPE svg PUBLIC "-//W3C//DTD SVG 20010904//EN" "http://www.w3.org/TR/2001/REC-SVG-20010904/DTD/svg10.dtd">
<svg version="1.0" xmlns="http://www.w3.org/2000/svg" width="800px" height="800px" viewBox="0 0 8000 8000" preserveAspectRatio="xMidYMid meet">
<g id="layer101" fill="#ff0000" stroke="none">
 <path d="M4916 7009 c-9 -48 -8 -49 27 -49 36 0 57 -15 57 -41 0 -14 -41 -126 -105 -291 -6 -16 0 -18 52 -18 l59 0 28 88 29 87 25 -87 26 -88 58 0 58 0 -44 123 c-87 241 -95 262 -121 285 -21 17 -38 22 -84 22 -57 0 -59 -1 -65 -31z"/>
 <path d="M2788 6909 c-54 -28 -105 -137 -65 -140 6 0 30 -3 52 -5 37 -4 41 -2 52 26 13 35 49 52 89 41 34 -9 53 -36 37 -52 -6 -6 -44 -20 -85 -31 -122 -32 -173 -104 -131 -184 26 -51 73 -74 148 -74 95 0 156 42 171 118 l7 32 -57 0 c-50 0 -57 -3 -66 -24 -10 -28 -49 -40 -84 -26 -52 19 -28 42 69 66 55 14 78 25 109 56 37 36 38 41 34 88 -9 87 -69 130 -180 130 -43 -1 -75 -7 -100 -21z"/>
 <path d="M3634 6916 c-17 -8 -42 -29 -55 -47 -23 -32 -24 -43 -27 -206 l-4 -173 56 0 56 0 0 128 c1 185 12 222 70 222 52 0 55 -7 60 -182 l5 -163 55 0 55 0 0 170 c0 163 -1 171 -24 204 -13 18 -39 40 -57 47 -42 18 -149 17 -190 0z"/>
 <path d="M5870 6911 c-66 -35 -75 -64 -75 -251 l0 -165 55 0 55 0 5 163 c4 130 8 165 20 172 22 14 76 12 89 -3 6 -8 12 -76 13 -173 l3 -159 55 0 55 0 0 172 c0 192 -5 210 -76 245 -47 25 -153 24 -199 -1z"/>
 <path d="M6932 6917 c-43 -13 -110 -89 -118 -133 -3 -19 -4 -64 -2 -102 5 -84 39 -141 104 -173 37 -17 58 -20 119 -17 64 3 78 7 112 34 53 42 83 105 83 174 0 108 -37 176 -115 211 -44 21 -130 23 -183 6z m144 -103 c31 -19 49 -99 35 -151 -14 -53 -43 -78 -91 -78 -67 0 -109 65 -96 147 9 56 23 77 59 93 34 15 58 12 93 -11z"/>
 <path d="M1952 6708 l3 -213 125 0 c104 0 131 3 153 18 41 27 59 62 60 116 1 90 -56 141 -160 141 l-63 0 0 75 0 75 -60 0 -60 0 2 -212z m212 -44 c37 -36 2 -84 -61 -84 -33 0 -33 0 -33 50 l0 50 39 0 c23 0 46 -7 55 -16z"/>
 <path d="M2260 6913 c0 -5 38 -100 83 -213 l82 -205 53 -3 c43 -3 53 0 59 15 3 10 42 104 85 210 43 105 78 194 78 198 0 3 -28 5 -62 3 l-61 -3 -15 -43 -14 -43 -71 3 -70 3 -15 43 -14 42 -59 0 c-32 0 -59 -3 -59 -7z m249 -180 c0 -5 -8 -25 -17 -46 l-17 -38 -16 46 -17 45 34 0 c19 0 34 -3 33 -7z"/>
 <path d="M3199 6892 c-131 -84 -113 -329 28 -388 88 -37 207 -4 244 68 27 54 24 64 -18 72 -59 9 -70 7 -76 -13 -8 -31 -52 -54 -84 -44 -60 20 -86 112 -54 190 28 68 108 66 137 -3 13 -31 19 -35 39 -30 81 20 89 34 54 95 -34 59 -64 75 -149 79 -69 3 -79 1 -121 -26z"/>
 <path d="M3930 6918 c0 -2 37 -97 83 -213 l83 -210 52 -3 c46 -3 53 0 62 20 51 120 160 393 160 399 0 5 -26 9 -59 9 l-58 0 -17 -45 -18 -45 -67 0 -68 0 -17 45 -18 45 -59 0 c-32 0 -59 -1 -59 -2z m244 -200 c-4 -13 -11 -34 -16 -48 -9 -25 -10 -24 -24 15 -19 54 -18 55 17 55 27 0 30 -3 23 -22z"/>
 <path d="M4402 6708 l3 -213 55 0 55 0 3 173 2 172 100 0 100 0 0 40 0 40 -160 0 -160 0 2 -212z"/>
 <path d="M5432 6708 l3 -213 153 -3 152 -3 0 46 0 45 -100 0 -100 0 0 40 0 39 88 3 87 3 0 40 0 40 -87 3 -88 3 0 84 0 85 -55 0 -55 0 2 -212z"/>
 <path d="M6220 6704 l0 -216 138 4 c111 2 143 6 165 21 39 26 60 62 60 108 0 50 -16 81 -55 103 -29 18 -29 18 -10 40 22 24 102 142 102 150 0 4 -29 6 -64 6 l-65 0 -53 -77 c-37 -54 -61 -79 -80 -84 l-28 -7 0 84 0 84 -55 0 -55 0 0 -216z m234 -50 c39 -38 5 -74 -70 -74 l-54 0 0 45 0 45 54 0 c36 0 60 -5 70 -16z"/>
 <path d="M6650 6705 l0 -215 55 0 55 0 0 215 0 215 -55 0 -55 0 0 -215z"/>
 <path d="M3894 4434 c3 -9 75 -141 160 -293 85 -152 161 -293 169 -313 l16 -38 -365 0 c-285 0 -364 -3 -364 -12 0 -7 99 -202 219 -433 l219 -420 386 0 387 0 18 -24 c10 -13 108 -184 216 -380 l198 -356 524 3 524 2 -44 83 c-140 258 -334 626 -345 651 -7 16 -10 31 -7 35 4 3 165 9 358 12 194 4 353 7 354 8 17 12 33 37 33 53 0 27 -365 717 -396 748 l-24 25 -395 5 c-379 5 -395 6 -409 25 -8 11 -45 76 -82 145 -37 69 -79 148 -94 175 -15 28 -51 95 -80 150 -29 55 -62 115 -72 133 l-20 32 -545 0 c-498 0 -545 -1 -539 -16z"/>
 </g>
<g id="layer102" fill="#ffffff" stroke="none">
 <path d="M138 6908 c-51 -49 -158 157 1035 -1983 132 -236 273 -491 315 -565 333 -598 377 -673 577 -975 183 -276 242 -338 387 -409 51 -25 131 -56 178 -68 84 -23 91 -23 600 -19 283 1 562 6 620 10 103 6 105 7 107 31 1 16 -78 178 -220 450 l-222 425 -180 5 c-161 5 -186 8 -235 30 -78 34 -129 70 -188 135 -50 54 -95 132 -492 835 -73 129 -211 375 -308 545 -343 607 -482 854 -640 1135 -189 336 -227 397 -265 424 -28 21 -40 21 -535 21 l-507 0 -27 -27z"/>
 <path d="M1930 6001 c-17 -16 -30 -38 -30 -48 0 -20 411 -776 438 -807 41 -45 48 -46 494 -46 419 0 534 -7 586 -34 87 -45 188 -177 350 -461 44 -77 88 -148 96 -158 15 -16 52 -17 569 -15 l552 3 3 22 c2 13 -78 174 -209 420 -326 612 -391 716 -546 863 -147 142 -283 212 -498 261 -99 23 -109 23 -938 26 l-838 4 -29 -30z"/>
 <path d="M5150 2175 c-16 -20 -10 -34 92 -218 50 -89 131 -236 180 -327 108 -199 177 -304 255 -389 112 -124 271 -231 393 -266 25 -7 90 -21 145 -31 91 -16 156 -17 720 -11 341 4 685 10 765 14 132 6 146 8 167 29 13 13 23 33 23 45 0 26 -390 711 -429 752 -14 16 -35 34 -46 40 -14 9 -151 14 -455 17 l-435 5 -57 28 c-62 30 -132 112 -203 237 -21 36 -45 71 -53 78 -12 9 -134 12 -533 12 -439 0 -518 -2 -529 -15z"/>
 </g>

</svg>